<svg width="104" height="104" viewBox="0 0 104 104" fill="none" xmlns="http://www.w3.org/2000/svg">
<path d="M104 52C104 80.7188 101 104 52 104C0 104 0 80.7188 0 52C0 23.2812 3.5 0 52 0C95 0 104 23.2812 104 52Z" fill="#BC7A3C"/>
<mask id="mask0_6_499" style="mask-type:alpha" maskUnits="userSpaceOnUse" x="0" y="0" width="104" height="104">
<path d="M104 52C104 80.7188 100.5 104 52 104C1 103.5 0 80.7188 0 52C0 23.2812 4 0 52 0C98 0 104 23.2812 104 52Z" fill="#BC7A3C"/>
</mask>
<g mask="url(#mask0_6_499)">
<path d="M73 33L112.415 49.8214L120 60.8929L112.415 90L31.5 73L35.5511 42.0714L73 33Z" fill="#8E5244"/>
</g>
<path d="M76.2759 68.7241C76.2759 75.3448 63.6781 75.3448 48.1379 75.3448C32.5978 75.3448 20 72.3806 20 68.7241C20 65.0676 32.5978 62.1034 48.1379 62.1034C63.6781 62.1034 76.2759 65.0676 76.2759 68.7241Z" fill="white"/>
<path d="M23.3103 36.1724C24.4138 48.3103 28.8275 64.8621 34.8965 66.5172H58.0689C62.4827 64.8621 75.7241 48.3103 76.2758 36.1724H23.3103Z" fill="white"/>
<ellipse cx="51.4483" cy="68.7241" rx="23.7241" ry="4.41379" fill="#E0E0E0"/>
<path d="M74.1529 42.2814C84.3636 41.6522 85.5649 48.5724 82.5617 54.2344C79.8725 59.3046 74.1529 63.2069 65.2413 56.0345" stroke="white" stroke-width="3"/>
<path d="M26.6207 36.7241C27.6552 48.2 35.2759 63.8489 40.9656 65.4138H60.2759C64.4138 63.8489 75.7587 48.2 76.2759 36.7241H26.6207Z" fill="#E0E0E0"/>
<path d="M76.2758 35.6207C76.2758 39.2772 72.6949 44.4483 58.0689 44.4483C43.4429 44.4483 23.3103 39.2772 23.3103 35.6207C23.3103 31.9642 35.167 29 49.7931 29C64.4191 29 76.2758 31.9642 76.2758 35.6207Z" fill="white"/>
<path d="M72.9655 36.3215C72.9655 40.8678 64.0224 42.9894 50.3448 42.0043C36.6672 41.0193 27.7241 39.1462 27.7241 36.3215C27.7241 33.4968 37.8518 31.2069 50.3448 31.2069C62.8379 31.2069 72.9655 33.4968 72.9655 36.3215Z" fill="#8E5244"/>
</svg>
